<svg width="41" height="41" viewBox="0 0 41 41" fill="none" xmlns="http://www.w3.org/2000/svg">
<path d="M40.9334 39.7605L30.2896 18.9488L27.6203 20.2243L35.578 35.7828C35.8466 36.1856 35.2422 36.1017 35.2422 36.1017C26.0254 36.001 22.2984 26.5853 22.2984 26.5853L26.6634 18.1767L34.3021 14.9375L27.251 12.8899L20.6028 0L13.9379 12.957L6.92037 14.9375L14.7437 18.2774L18.9408 26.686C13.9043 36.8569 6.01382 36.152 6.01382 36.152C5.45981 36.1856 5.66125 35.8835 5.66125 35.8835L13.5853 20.2243L11.0167 18.9152L0.205078 40.0794H7.39044C16.2714 40.0794 20.4014 30.2442 20.4014 30.2442C20.586 29.7574 20.7707 30.3113 20.7707 30.3113C25.5889 40.113 32.6064 40.0794 32.6064 40.0794H40.6648C41.202 40.0962 40.9334 39.7605 40.9334 39.7605ZM20.6532 23.3125L16.3722 14.971L20.6196 6.62955L24.9342 14.971L20.6532 23.3125Z" fill="url(#paint0_linear_1_3931)"/>
<defs>
<linearGradient id="paint0_linear_1_3931" x1="21.002" y1="-2.0613e-08" x2="20.5022" y2="27.4925" gradientUnits="userSpaceOnUse">
<stop stop-color="#30D5C8"/>
<stop offset="1" stop-color="#7557FF"/>
</linearGradient>
</defs>
</svg>
