<svg width="24" height="24" viewBox="0 0 24 24" fill="none" xmlns="http://www.w3.org/2000/svg">
<path fill-rule="evenodd" clip-rule="evenodd" d="M7.63636 0C7.92569 0 8.20317 0.114935 8.40775 0.31952C8.61234 0.524105 8.72727 0.801582 8.72727 1.09091V7.63636C8.72727 7.92569 8.61234 8.20317 8.40775 8.40775C8.20317 8.61234 7.92569 8.72727 7.63636 8.72727H1.09091C0.801582 8.72727 0.524105 8.61234 0.31952 8.40775C0.114935 8.20317 0 7.92569 0 7.63636C0 7.34704 0.114935 7.06956 0.31952 6.86497C0.524105 6.66039 0.801582 6.54545 1.09091 6.54545H6.54545V1.09091C6.54545 0.801582 6.66039 0.524105 6.86497 0.31952C7.06956 0.114935 7.34704 0 7.63636 0ZM16.3636 0C16.653 0 16.9304 0.114935 17.135 0.31952C17.3396 0.524105 17.4545 0.801582 17.4545 1.09091V6.54545H22.9091C23.1984 6.54545 23.4759 6.66039 23.6805 6.86497C23.8851 7.06956 24 7.34704 24 7.63636C24 7.92569 23.8851 8.20317 23.6805 8.40775C23.4759 8.61234 23.1984 8.72727 22.9091 8.72727H16.3636C16.0743 8.72727 15.7968 8.61234 15.5922 8.40775C15.3877 8.20317 15.2727 7.92569 15.2727 7.63636V1.09091C15.2727 0.801582 15.3877 0.524105 15.5922 0.31952C15.7968 0.114935 16.0743 0 16.3636 0ZM0 16.3636C0 16.0743 0.114935 15.7968 0.31952 15.5922C0.524105 15.3877 0.801582 15.2727 1.09091 15.2727H7.63636C7.92569 15.2727 8.20317 15.3877 8.40775 15.5922C8.61234 15.7968 8.72727 16.0743 8.72727 16.3636V22.9091C8.72727 23.1984 8.61234 23.4759 8.40775 23.6805C8.20317 23.8851 7.92569 24 7.63636 24C7.34704 24 7.06956 23.8851 6.86497 23.6805C6.66039 23.4759 6.54545 23.1984 6.54545 22.9091V17.4545H1.09091C0.801582 17.4545 0.524105 17.3396 0.31952 17.135C0.114935 16.9304 0 16.653 0 16.3636ZM15.2727 16.3636C15.2727 16.0743 15.3877 15.7968 15.5922 15.5922C15.7968 15.3877 16.0743 15.2727 16.3636 15.2727H22.9091C23.1984 15.2727 23.4759 15.3877 23.6805 15.5922C23.8851 15.7968 24 16.0743 24 16.3636C24 16.653 23.8851 16.9304 23.6805 17.135C23.4759 17.3396 23.1984 17.4545 22.9091 17.4545H17.4545V22.9091C17.4545 23.1984 17.3396 23.4759 17.135 23.6805C16.9304 23.8851 16.653 24 16.3636 24C16.0743 24 15.7968 23.8851 15.5922 23.6805C15.3877 23.4759 15.2727 23.1984 15.2727 22.9091V16.3636Z" fill="#435775"/>
</svg>
