<svg width="16" height="18" viewBox="0 0 16 18" fill="none" xmlns="http://www.w3.org/2000/svg">
<path d="M11.9582 3.79199C11.9582 3.12895 11.6948 2.49307 11.2259 2.02423C10.7571 1.55538 10.1212 1.29199 9.45817 1.29199H4.0415C3.37846 1.29199 2.74258 1.55538 2.27374 2.02423C1.8049 2.49307 1.5415 3.12895 1.5415 3.79199V11.7087C1.5415 12.3717 1.8049 13.0076 2.27374 13.4764C2.74258 13.9453 3.37846 14.2087 4.0415 14.2087H9.45817C10.1212 14.2087 10.7571 13.9453 11.2259 13.4764C11.6948 13.0076 11.9582 12.3717 11.9582 11.7087V3.79199Z" stroke="#556E94" stroke-width="1.6" stroke-linecap="round" stroke-linejoin="round"/>
<path d="M14.4583 4.625V11.7083C14.4583 13.0344 13.9315 14.3062 12.9939 15.2439C12.0562 16.1816 10.7844 16.7083 9.45833 16.7083H4.875" stroke="#556E94" stroke-width="1.6" stroke-linecap="round" stroke-linejoin="round"/>
</svg>
