<svg width="18" height="22" viewBox="0 0 18 22" fill="none" xmlns="http://www.w3.org/2000/svg">
<path d="M6.25008 11.9163H11.7501M6.25008 15.583H9.00008M1.66675 3.66634V18.333C1.66675 18.8192 1.8599 19.2856 2.20372 19.6294C2.54754 19.9732 3.01385 20.1663 3.50008 20.1663H14.5001C14.9863 20.1663 15.4526 19.9732 15.7964 19.6294C16.1403 19.2856 16.3334 18.8192 16.3334 18.333V7.64651C16.3334 7.40227 16.2846 7.1605 16.1898 6.9354C16.095 6.7103 15.9562 6.5064 15.7816 6.33567L11.7116 2.35551C11.3691 2.02061 10.9091 1.83307 10.4301 1.83301H3.50008C3.01385 1.83301 2.54754 2.02616 2.20372 2.36998C1.8599 2.7138 1.66675 3.18011 1.66675 3.66634Z" stroke="#8EA1BD" stroke-width="1.83333" stroke-linecap="round" stroke-linejoin="round"/>
<path d="M10.8335 1.83301V5.49967C10.8335 5.9859 11.0267 6.45222 11.3705 6.79604C11.7143 7.13985 12.1806 7.33301 12.6668 7.33301H16.3335" stroke="#8EA1BD" stroke-width="1.83333" stroke-linejoin="round"/>
</svg>
