<svg width="24" height="24" viewBox="0 0 24 24" fill="none" xmlns="http://www.w3.org/2000/svg">
<path d="M13.7142 7.71401H20.5713V9.42829H13.7142V7.71401ZM3.42847 14.5712H10.2856V16.2854H3.42847V14.5712ZM6.85704 11.9997C6.17893 11.9997 5.51605 11.7986 4.95223 11.4219C4.3884 11.0452 3.94895 10.5097 3.68945 9.88321C3.42995 9.25672 3.36206 8.56735 3.49435 7.90227C3.62664 7.23719 3.95318 6.62628 4.43267 6.14679C4.91217 5.66729 5.52308 5.34075 6.18816 5.20846C6.85324 5.07617 7.54261 5.14406 8.1691 5.40356C8.79559 5.66306 9.33106 6.10251 9.70779 6.66634C10.0845 7.23017 10.2856 7.89304 10.2856 8.57115C10.2845 9.48012 9.92289 10.3515 9.28015 10.9943C8.63742 11.637 7.76601 11.9986 6.85704 11.9997ZM6.85704 6.85687C6.51799 6.85687 6.18655 6.95741 5.90463 7.14578C5.62272 7.33414 5.403 7.60188 5.27325 7.91512C5.1435 8.22837 5.10955 8.57305 5.17569 8.90559C5.24184 9.23813 5.40511 9.54359 5.64486 9.78333C5.8846 10.0231 6.19006 10.1864 6.5226 10.2525C6.85514 10.3186 7.19982 10.2847 7.51307 10.1549C7.82631 10.0252 8.09405 9.80547 8.28242 9.52356C8.47078 9.24164 8.57133 8.91021 8.57133 8.57115C8.57133 8.11649 8.39071 7.68046 8.06922 7.35897C7.74773 7.03748 7.3117 6.85687 6.85704 6.85687ZM17.1428 18.8569C16.4646 18.8569 15.8018 18.6558 15.2379 18.279C14.6741 17.9023 14.2347 17.3668 13.9752 16.7404C13.7157 16.1139 13.6478 15.4245 13.7801 14.7594C13.9124 14.0943 14.2389 13.4834 14.7184 13.0039C15.1979 12.5244 15.8088 12.1979 16.4739 12.0656C17.139 11.9333 17.8283 12.0012 18.4548 12.2607C19.0813 12.5202 19.6168 12.9597 19.9935 13.5235C20.3702 14.0873 20.5713 14.7502 20.5713 15.4283C20.5702 16.3373 20.2086 17.2087 19.5659 17.8514C18.9231 18.4941 18.0517 18.8557 17.1428 18.8569ZM17.1428 13.714C16.8037 13.714 16.4723 13.8145 16.1903 14.0029C15.9084 14.1913 15.6887 14.459 15.559 14.7723C15.4292 15.0855 15.3953 15.4302 15.4614 15.7627C15.5276 16.0953 15.6908 16.4007 15.9306 16.6405C16.1703 16.8802 16.4758 17.0435 16.8083 17.1096C17.1409 17.1758 17.4855 17.1418 17.7988 17.0121C18.112 16.8823 18.3798 16.6626 18.5681 16.3807C18.7565 16.0988 18.857 15.7673 18.857 15.4283C18.857 14.9736 18.6764 14.5376 18.3549 14.2161C18.0334 13.8946 17.5974 13.714 17.1428 13.714Z" fill="#6B8BBA"/>
<path d="M22.2857 24H1.71429C1.25963 24 0.823593 23.8194 0.502103 23.4979C0.180612 23.1764 0 22.7404 0 22.2857V1.71429C0 1.25963 0.180612 0.823593 0.502103 0.502103C0.823593 0.180612 1.25963 0 1.71429 0H22.2857C22.7404 0 23.1764 0.180612 23.4979 0.502103C23.8194 0.823593 24 1.25963 24 1.71429V22.2857C24 22.7404 23.8194 23.1764 23.4979 23.4979C23.1764 23.8194 22.7404 24 22.2857 24ZM1.71429 1.71429V22.2857H22.2857V1.71429H1.71429Z" fill="#6B8BBA"/>
</svg>
