<svg width="30" height="30" viewBox="0 0 30 30" fill="none" xmlns="http://www.w3.org/2000/svg">
<g clip-path="url(#clip0_1364_7417)">
<path d="M6.42868 15.0002V9.36452C6.44541 8.25673 6.68057 7.16313 7.12069 6.14638C7.5608 5.12964 8.19721 4.20972 8.99346 3.43935C9.78971 2.66898 10.7301 2.0633 11.7609 1.65701C12.7916 1.25072 13.8924 1.05181 15.0001 1.07167C16.1078 1.05181 17.2086 1.25072 18.2393 1.65701C19.2701 2.0633 20.2105 2.66898 21.0068 3.43935C21.803 4.20972 22.4394 5.12964 22.8795 6.14638C23.3196 7.16313 23.5548 8.25673 23.5715 9.36452V15.0002M19.2858 26.2502C20.4225 26.2502 21.5125 25.7987 22.3163 24.995C23.12 24.1913 23.5715 23.1012 23.5715 21.9645V17.1431M19.2858 26.2502C19.2858 26.9606 19.0036 27.6419 18.5013 28.1443C17.999 28.6466 17.3176 28.9288 16.6072 28.9288H13.393C12.6826 28.9288 12.0013 28.6466 11.4989 28.1443C10.9966 27.6419 10.7144 26.9606 10.7144 26.2502C10.7144 25.5398 10.9966 24.8585 11.4989 24.3562C12.0013 23.8539 12.6826 23.5717 13.393 23.5717H16.6072C17.3176 23.5717 17.999 23.8539 18.5013 24.3562C19.0036 24.8585 19.2858 25.5398 19.2858 26.2502ZM3.21439 11.786H5.35725C5.64141 11.786 5.91393 11.8988 6.11486 12.0998C6.31579 12.3007 6.42868 12.5732 6.42868 12.8574V19.286C6.42868 19.5701 6.31579 19.8426 6.11486 20.0436C5.91393 20.2445 5.64141 20.3574 5.35725 20.3574H3.21439C2.64607 20.3574 2.10103 20.1316 1.69916 19.7298C1.2973 19.3279 1.07153 18.7828 1.07153 18.2145V13.9288C1.07153 13.3605 1.2973 12.8154 1.69916 12.4136C2.10103 12.0117 2.64607 11.786 3.21439 11.786ZM26.7858 20.3574H24.643C24.3588 20.3574 24.0863 20.2445 23.8853 20.0436C23.6844 19.8426 23.5715 19.5701 23.5715 19.286V12.8574C23.5715 12.5732 23.6844 12.3007 23.8853 12.0998C24.0863 11.8988 24.3588 11.786 24.643 11.786H26.7858C27.3541 11.786 27.8992 12.0117 28.301 12.4136C28.7029 12.8154 28.9287 13.3605 28.9287 13.9288V18.2145C28.9287 18.7828 28.7029 19.3279 28.301 19.7298C27.8992 20.1316 27.3541 20.3574 26.7858 20.3574Z" stroke="#F0F3FF" stroke-width="2.14286" stroke-linecap="round" stroke-linejoin="round"/>
</g>
<defs>
<clipPath id="clip0_1364_7417">
<rect width="30" height="30" fill="white"/>
</clipPath>
</defs>
</svg>
