<svg width="20" height="20" viewBox="0 0 20 20" fill="none" xmlns="http://www.w3.org/2000/svg">
<path d="M18.5332 8.93372C18.2503 8.93372 17.979 9.04611 17.779 9.24614C17.5789 9.44618 17.4666 9.71749 17.4666 10.0004V16.4004C17.4666 16.6833 17.3542 16.9546 17.1542 17.1546C16.9541 17.3547 16.6828 17.4671 16.3999 17.4671H3.5999C3.317 17.4671 3.04569 17.3547 2.84566 17.1546C2.64562 16.9546 2.53324 16.6833 2.53324 16.4004V3.60039C2.53324 3.31749 2.64562 3.04618 2.84566 2.84614C3.04569 2.6461 3.317 2.53372 3.5999 2.53372H9.9999C10.2828 2.53372 10.5541 2.42134 10.7541 2.2213C10.9542 2.02127 11.0666 1.74995 11.0666 1.46706C11.0666 1.18416 10.9542 0.912849 10.7541 0.71281C10.5541 0.512771 10.2828 0.400391 9.9999 0.400391H3.5999C2.75121 0.400391 1.93728 0.737533 1.33716 1.33765C0.737044 1.93777 0.399902 2.7517 0.399902 3.60039V16.4004C0.399902 17.2491 0.737044 18.063 1.33716 18.6631C1.93728 19.2633 2.75121 19.6004 3.5999 19.6004H16.3999C17.2486 19.6004 18.0625 19.2633 18.6626 18.6631C19.2628 18.063 19.5999 17.2491 19.5999 16.4004V10.0004C19.5999 9.71749 19.4875 9.44618 19.2875 9.24614C19.0874 9.04611 18.8161 8.93372 18.5332 8.93372Z" fill="#3499FF"/>
<path d="M14.2663 2.53372H15.9516L9.24228 9.23239C9.1423 9.33155 9.06295 9.44952 9.00879 9.57951C8.95464 9.70949 8.92676 9.84891 8.92676 9.98972C8.92676 10.1305 8.95464 10.27 9.00879 10.3999C9.06295 10.5299 9.1423 10.6479 9.24228 10.7471C9.34144 10.847 9.45941 10.9264 9.58939 10.9805C9.71938 11.0347 9.8588 11.0626 9.99961 11.0626C10.1404 11.0626 10.2798 11.0347 10.4098 10.9805C10.5398 10.9264 10.6578 10.847 10.7569 10.7471L17.4663 4.04839V5.73372C17.4663 6.01662 17.5787 6.28793 17.7787 6.48797C17.9787 6.68801 18.25 6.80039 18.5329 6.80039C18.8158 6.80039 19.0872 6.68801 19.2872 6.48797C19.4872 6.28793 19.5996 6.01662 19.5996 5.73372V1.46706C19.5996 1.18416 19.4872 0.912849 19.2872 0.71281C19.0872 0.512771 18.8158 0.400391 18.5329 0.400391H14.2663C13.9834 0.400391 13.7121 0.512771 13.512 0.71281C13.312 0.912849 13.1996 1.18416 13.1996 1.46706C13.1996 1.74995 13.312 2.02127 13.512 2.2213C13.7121 2.42134 13.9834 2.53372 14.2663 2.53372Z" fill="#3499FF"/>
</svg>
