<svg width="50" height="50" viewBox="0 0 50 50" fill="none" xmlns="http://www.w3.org/2000/svg">
<path d="M19.9235 31.1875H21.8265C22.1464 31.1875 22.4113 31.0821 22.6213 30.8712C22.8312 30.6604 22.9366 30.3955 22.9375 30.0765V28.1735C22.9375 27.8545 22.8321 27.5896 22.6213 27.3787C22.4104 27.1679 22.1455 27.0625 21.8265 27.0625H19.9235C19.6045 27.0625 19.3396 27.1679 19.1287 27.3787C18.9179 27.5896 18.8125 27.8545 18.8125 28.1735V30.0765C18.8125 30.3955 18.9179 30.6604 19.1287 30.8712C19.3396 31.0821 19.6045 31.1875 19.9235 31.1875ZM28.1735 31.1875H30.0765C30.3964 31.1875 30.6613 31.0821 30.8712 30.8712C31.0812 30.6604 31.1866 30.3955 31.1875 30.0765V28.1735C31.1875 27.8536 31.0821 27.5887 30.8712 27.3787C30.6604 27.1688 30.3955 27.0634 30.0765 27.0625H28.1735C27.8545 27.0625 27.5896 27.1679 27.3787 27.3787C27.1679 27.5896 27.0625 27.8545 27.0625 28.1735V30.0765C27.0625 30.3955 27.1679 30.6604 27.3787 30.8712C27.5896 31.0821 27.8545 31.1875 28.1735 31.1875ZM19.9235 22.9375H21.8265C22.1455 22.9375 22.4104 22.8321 22.6213 22.6213C22.8321 22.4104 22.9375 22.1455 22.9375 21.8265V19.9235C22.9375 19.6036 22.8321 19.3387 22.6213 19.1287C22.4104 18.9188 22.1455 18.8134 21.8265 18.8125H19.9235C19.6045 18.8125 19.3396 18.9179 19.1287 19.1287C18.9179 19.3396 18.8125 19.6045 18.8125 19.9235V21.8265C18.8125 22.1464 18.9179 22.4113 19.1287 22.6213C19.3396 22.8312 19.6045 22.9366 19.9235 22.9375ZM28.1735 22.9375H30.0765C30.3964 22.9375 30.6613 22.8321 30.8712 22.6213C31.0812 22.4104 31.1866 22.1455 31.1875 21.8265V19.9235C31.1875 19.6045 31.0821 19.3396 30.8712 19.1287C30.6604 18.9179 30.3955 18.8125 30.0765 18.8125H28.1735C27.8545 18.8125 27.5896 18.9179 27.3787 19.1287C27.1679 19.3396 27.0625 19.6045 27.0625 19.9235V21.8265C27.0625 22.1464 27.1679 22.4113 27.3787 22.6213C27.5896 22.8312 27.8545 22.9366 28.1735 22.9375ZM16.222 36C15.5886 36 15.0601 35.7882 14.6366 35.3647C14.2131 34.9412 14.0009 34.4123 14 33.778V16.222C14 15.5886 14.2122 15.0601 14.6366 14.6366C15.061 14.2131 15.5895 14.0009 16.222 14H33.7794C34.4119 14 34.9403 14.2122 35.3647 14.6366C35.7892 15.061 36.0009 15.5895 36 16.222V33.7794C36 34.4119 35.7882 34.9403 35.3647 35.3647C34.9412 35.7892 34.4123 36.0009 33.778 36H16.222ZM16.222 34.625H33.7794C33.9902 34.625 34.1841 34.537 34.361 34.361C34.5379 34.185 34.6259 33.9907 34.625 33.778V16.222C34.625 16.0103 34.537 15.8159 34.361 15.639C34.185 15.4621 33.9907 15.3741 33.778 15.375H16.222C16.0103 15.375 15.8159 15.463 15.639 15.639C15.4621 15.815 15.3741 16.0093 15.375 16.222V33.7794C15.375 33.9902 15.463 34.1841 15.639 34.361C15.815 34.5379 16.0089 34.6259 16.2206 34.625" fill="#8EA1BD"/>
<path d="M16.222 34.625H33.7794C33.9902 34.625 34.1841 34.537 34.361 34.361C34.5379 34.185 34.6259 33.9907 34.625 33.778V16.222C34.625 16.0103 34.537 15.8159 34.361 15.639C34.185 15.4621 33.9907 15.3741 33.778 15.375H16.222C16.0103 15.375 15.8159 15.463 15.639 15.639C15.4621 15.815 15.3741 16.0093 15.375 16.222V33.7794C15.375 33.9902 15.463 34.1841 15.639 34.361C15.815 34.5379 16.0089 34.6259 16.2206 34.625M15.375 15.375V34.625M19.9235 31.1875H21.8265C22.1464 31.1875 22.4113 31.0821 22.6212 30.8712C22.8312 30.6604 22.9366 30.3955 22.9375 30.0765V28.1735C22.9375 27.8545 22.8321 27.5896 22.6212 27.3787C22.4104 27.1679 22.1455 27.0625 21.8265 27.0625H19.9235C19.6045 27.0625 19.3396 27.1679 19.1287 27.3787C18.9179 27.5896 18.8125 27.8545 18.8125 28.1735V30.0765C18.8125 30.3955 18.9179 30.6604 19.1287 30.8712C19.3396 31.0821 19.6045 31.1875 19.9235 31.1875ZM28.1735 31.1875H30.0765C30.3964 31.1875 30.6613 31.0821 30.8712 30.8712C31.0812 30.6604 31.1866 30.3955 31.1875 30.0765V28.1735C31.1875 27.8536 31.0821 27.5887 30.8712 27.3787C30.6604 27.1688 30.3955 27.0634 30.0765 27.0625H28.1735C27.8545 27.0625 27.5896 27.1679 27.3787 27.3787C27.1679 27.5896 27.0625 27.8545 27.0625 28.1735V30.0765C27.0625 30.3955 27.1679 30.6604 27.3787 30.8712C27.5896 31.0821 27.8545 31.1875 28.1735 31.1875ZM19.9235 22.9375H21.8265C22.1455 22.9375 22.4104 22.8321 22.6212 22.6212C22.8321 22.4104 22.9375 22.1455 22.9375 21.8265V19.9235C22.9375 19.6036 22.8321 19.3387 22.6212 19.1287C22.4104 18.9188 22.1455 18.8134 21.8265 18.8125H19.9235C19.6045 18.8125 19.3396 18.9179 19.1287 19.1287C18.9179 19.3396 18.8125 19.6045 18.8125 19.9235V21.8265C18.8125 22.1464 18.9179 22.4113 19.1287 22.6212C19.3396 22.8312 19.6045 22.9366 19.9235 22.9375ZM28.1735 22.9375H30.0765C30.3964 22.9375 30.6613 22.8321 30.8712 22.6212C31.0812 22.4104 31.1866 22.1455 31.1875 21.8265V19.9235C31.1875 19.6045 31.0821 19.3396 30.8712 19.1287C30.6604 18.9179 30.3955 18.8125 30.0765 18.8125H28.1735C27.8545 18.8125 27.5896 18.9179 27.3787 19.1287C27.1679 19.3396 27.0625 19.6045 27.0625 19.9235V21.8265C27.0625 22.1464 27.1679 22.4113 27.3787 22.6212C27.5896 22.8312 27.8545 22.9366 28.1735 22.9375ZM16.222 36C15.5886 36 15.0601 35.7882 14.6366 35.3647C14.2131 34.9412 14.0009 34.4123 14 33.778V16.222C14 15.5886 14.2122 15.0601 14.6366 14.6366C15.061 14.2131 15.5895 14.0009 16.222 14H33.7794C34.4119 14 34.9403 14.2122 35.3647 14.6366C35.7892 15.061 36.0009 15.5895 36 16.222V33.7794C36 34.4119 35.7882 34.9403 35.3647 35.3647C34.9412 35.7892 34.4123 36.0009 33.778 36H16.222Z" stroke="#8EA1BD" stroke-width="0.3"/>
</svg>
