<svg width="50" height="49" viewBox="0 0 50 49" fill="none" xmlns="http://www.w3.org/2000/svg">
<g clip-path="url(#clip0_1_3917)">
<path fill-rule="evenodd" clip-rule="evenodd" d="M35.0284 24.9511L34.9442 25.0337L26.0675 33.7375C26.0412 33.7632 26.0202 33.7939 26.0057 33.8277C25.9912 33.8615 25.9835 33.8979 25.9831 33.9346C25.9827 33.9714 25.9895 34.0079 26.0032 34.0421C26.0169 34.0762 26.0372 34.1074 26.0629 34.1337L26.0675 34.1382L27.8906 35.9277C28.0497 36.0831 28.1409 36.2952 28.144 36.5176C28.1472 36.74 28.0621 36.9546 27.9074 37.1145L27.8921 37.1298C27.7279 37.29 27.5075 37.3797 27.2781 37.3797C27.0486 37.3797 26.8282 37.29 26.664 37.1298L24.8409 35.3434C24.6532 35.161 24.5039 34.9427 24.402 34.7015C24.3001 34.4604 24.2475 34.2012 24.2475 33.9394C24.2475 33.6776 24.3001 33.4184 24.402 33.1773C24.5039 32.9361 24.6532 32.7179 24.8409 32.5354L33.7192 23.83C34.1973 23.364 34.4709 22.7272 34.4798 22.0596C34.4887 21.392 34.2322 20.7481 33.7666 20.2695L33.7192 20.2206L33.6672 20.1717C33.1751 19.6924 32.5155 19.424 31.8287 19.4234C31.1418 19.4229 30.4818 19.6902 29.9889 20.1686L22.6768 27.3415H22.6738L22.5744 27.4409C22.4101 27.6012 22.1897 27.6908 21.9603 27.6908C21.7308 27.6908 21.5105 27.6012 21.3462 27.4409C21.1873 27.2853 21.0964 27.0731 21.0936 26.8507C21.0907 26.6283 21.1761 26.4138 21.3309 26.2541L21.3462 26.2388L28.7624 18.9649C29.7565 17.9922 29.7764 16.3986 28.8036 15.4029L28.7593 15.3571C28.2667 14.8773 27.6063 14.6089 26.9186 14.6089C26.231 14.6089 25.5706 14.8773 25.078 15.3571L15.2653 24.9832C15.1011 25.1429 14.8811 25.2323 14.652 25.2323C14.4229 25.2323 14.2029 25.1429 14.0387 24.9832C13.8795 24.8278 13.7884 24.6157 13.7853 24.3932C13.7821 24.1708 13.8672 23.9562 14.0219 23.7964L14.0387 23.7811L23.8529 14.1519C24.6738 13.3531 25.774 12.9062 26.9194 12.9062C28.0648 12.9062 29.165 13.3531 29.9859 14.1519C30.9494 15.0894 31.4067 16.4307 31.214 17.7613C32.5599 17.5701 33.9211 18.0152 34.8938 18.9649L34.9458 19.0154C35.3409 19.3996 35.6564 19.858 35.8743 20.3642C36.0923 20.8704 36.2083 21.4146 36.2158 21.9657C36.2233 22.5168 36.1222 23.0639 35.9182 23.5759C35.7142 24.0879 35.4113 24.5547 35.0268 24.9495M32.4406 22.5744C32.5995 22.4188 32.6904 22.2065 32.6933 21.9841C32.6961 21.7617 32.6108 21.5472 32.4559 21.3875L32.4406 21.3722C32.2763 21.212 32.056 21.1223 31.8265 21.1223C31.5971 21.1223 31.3767 21.212 31.2125 21.3722L23.9539 28.4901C23.4613 28.9699 22.8008 29.2383 22.1132 29.2383C21.4256 29.2383 20.7652 28.9699 20.2726 28.4901C20.0315 28.2554 19.84 27.9748 19.7092 27.6648C19.5783 27.3549 19.5109 27.0219 19.5109 26.6854C19.5109 26.349 19.5783 26.016 19.7092 25.706C19.84 25.396 20.0315 25.1154 20.2726 24.8807L27.5327 17.7613C27.6919 17.6059 27.783 17.3938 27.7861 17.1714C27.7893 16.9489 27.7042 16.7343 27.5495 16.5745L27.5327 16.5592C27.3685 16.399 27.1481 16.3093 26.9186 16.3093C26.6892 16.3093 26.4688 16.399 26.3046 16.5592L19.0475 23.6771C18.6455 24.068 18.3259 24.5356 18.1077 25.0522C17.8895 25.5688 17.7771 26.1239 17.7771 26.6847C17.7771 27.2454 17.8895 27.8005 18.1077 28.3171C18.3259 28.8337 18.6455 29.3013 19.0475 29.6922C19.8687 30.4911 20.9691 30.9381 22.1148 30.9381C23.2604 30.9381 24.3609 30.4911 25.182 29.6922L32.4406 22.5744Z" fill="#8EA1BD"/>
</g>
<defs>
<clipPath id="clip0_1_3917">
<rect width="24.48" height="24.48" fill="white" transform="translate(12.76 12)"/>
</clipPath>
</defs>
</svg>
