<svg width="50" height="50" viewBox="0 0 50 50" fill="none" xmlns="http://www.w3.org/2000/svg">
<path d="M21.0729 29.6042L26.5437 28.0333C26.9049 27.925 27.2165 27.7397 27.4787 27.4776C27.7408 27.2154 27.9257 26.9041 28.0333 26.5437L29.6042 21.0729C29.6583 20.8743 29.6089 20.6981 29.4558 20.5442C29.3026 20.3904 29.1264 20.3409 28.9271 20.3958L23.4562 21.9667C23.0951 22.075 22.7839 22.2602 22.5224 22.5224C22.261 22.7846 22.0757 23.0959 21.9667 23.4562L20.3958 28.9271C20.3417 29.1257 20.3915 29.3019 20.5453 29.4557C20.6992 29.6096 20.875 29.659 21.0729 29.6042ZM25 26.625C24.5486 26.625 24.1651 26.4672 23.8495 26.1516C23.5339 25.836 23.3757 25.4521 23.375 25C23.3743 24.5479 23.5324 24.1644 23.8495 23.8495C24.1666 23.5346 24.5501 23.3764 25 23.375C25.4499 23.3735 25.8338 23.5317 26.1516 23.8495C26.4694 24.1673 26.6272 24.5508 26.625 25C26.6228 25.4492 26.465 25.8331 26.1516 26.1516C25.8381 26.4701 25.4543 26.6279 25 26.625ZM25 35.8333C23.5014 35.8333 22.0931 35.5488 20.775 34.9797C19.4569 34.4105 18.3104 33.6389 17.3354 32.6646C16.3604 31.6903 15.5887 30.5438 15.0203 29.225C14.4519 27.9062 14.1674 26.4979 14.1667 25C14.1659 23.5021 14.4505 22.0938 15.0203 20.775C15.5902 19.4562 16.3619 18.3097 17.3354 17.3354C18.309 16.3611 19.4555 15.5894 20.775 15.0203C22.0945 14.4512 23.5028 14.1667 25 14.1667C26.4972 14.1667 27.9055 14.4512 29.225 15.0203C30.5445 15.5894 31.691 16.3611 32.6646 17.3354C33.6381 18.3097 34.4102 19.4562 34.9807 20.775C35.5513 22.0938 35.8355 23.5021 35.8333 25C35.8312 26.4979 35.5466 27.9062 34.9797 29.225C34.4127 30.5438 33.641 31.6903 32.6646 32.6646C31.6881 33.6389 30.5416 34.4109 29.225 34.9807C27.9084 35.5506 26.5001 35.8348 25 35.8333ZM25 33.6667C27.4014 33.6667 29.4464 32.8227 31.1349 31.1349C32.8235 29.4471 33.6674 27.4021 33.6667 25C33.6659 22.5979 32.822 20.5529 31.1349 18.8651C29.4478 17.1772 27.4028 16.3333 25 16.3333C22.5972 16.3333 20.5522 17.1776 18.8651 18.8662C17.178 20.5547 16.3341 22.5993 16.3333 25C16.3326 27.4007 17.1769 29.4456 18.8662 31.1349C20.5554 32.8242 22.6001 33.6681 25 33.6667Z" fill="#8EA1BD"/>
</svg>
