<svg width="50" height="50" viewBox="0 0 50 50" fill="none" xmlns="http://www.w3.org/2000/svg">
<path d="M34.6752 26.2036C34.9166 24.2629 34.5688 22.2944 33.677 20.5539C32.7852 18.8135 31.3905 17.3814 29.6743 16.4438C27.958 15.5062 25.9995 15.1063 24.0531 15.2962C22.1066 15.4861 20.2623 16.257 18.7596 17.5086C17.257 18.7603 16.1655 20.4349 15.6269 22.315C15.0883 24.195 15.1275 26.1936 15.7394 28.051C16.3514 29.9085 17.5077 31.539 19.0584 32.7307C20.609 33.9225 22.4821 34.6204 24.4345 34.7338M33.6667 34.75L35.8333 32.5833L33.6667 30.4167M30.4167 30.4167L28.25 32.5833L30.4167 34.75" stroke="#8EA1BD" stroke-width="1.8" stroke-linecap="round" stroke-linejoin="round"/>
<path d="M25 19.5833V25L27.1667 27.1667" stroke="#8EA1BD" stroke-width="1.8" stroke-linecap="round" stroke-linejoin="round"/>
</svg>
