<svg width="50" height="50" viewBox="0 0 50 50" fill="none" xmlns="http://www.w3.org/2000/svg">
<path d="M35.2857 13.8571C35.2857 13.6298 35.1954 13.4118 35.0347 13.2511C34.8739 13.0903 34.6559 13 34.4286 13C34.2012 13 33.9832 13.0903 33.8225 13.2511C33.6617 13.4118 33.5714 13.6298 33.5714 13.8571V14.7143H32.7143C32.487 14.7143 32.2689 14.8046 32.1082 14.9653C31.9474 15.1261 31.8571 15.3441 31.8571 15.5714C31.8571 15.7988 31.9474 16.0168 32.1082 16.1775C32.2689 16.3383 32.487 16.4286 32.7143 16.4286H33.5714V17.2857C33.5714 17.513 33.6617 17.7311 33.8225 17.8918C33.9832 18.0526 34.2012 18.1429 34.4286 18.1429C34.6559 18.1429 34.8739 18.0526 35.0347 17.8918C35.1954 17.7311 35.2857 17.513 35.2857 17.2857V16.4286H36.1429C36.3702 16.4286 36.5882 16.3383 36.7489 16.1775C36.9097 16.0168 37 15.7988 37 15.5714C37 15.3441 36.9097 15.1261 36.7489 14.9653C36.5882 14.8046 36.3702 14.7143 36.1429 14.7143H35.2857V13.8571ZM18.8491 14.5874C19.0171 13.7766 19.7269 13 20.7143 13C21.7017 13 22.4114 13.7766 22.5811 14.5874C22.793 15.6379 23.3079 16.6034 24.0623 17.3646C24.8232 18.1196 25.7887 18.6351 26.8394 18.8474C27.6503 19.0154 28.4269 19.7251 28.4269 20.716C28.4269 21.7034 27.6503 22.4131 26.8394 22.5811C25.7887 22.7935 24.8232 23.309 24.0623 24.064C23.3079 24.8252 22.793 25.7906 22.5811 26.8411C22.4131 27.6503 21.7034 28.4286 20.7126 28.4286C19.7251 28.4286 19.0154 27.652 18.8474 26.8411C18.6354 25.7898 18.1199 24.8237 17.3646 24.0623C16.6034 23.3079 15.6379 22.793 14.5874 22.5811C13.7783 22.4131 13.0017 21.7051 13 20.7177C12.9983 19.7269 13.7766 19.0154 14.5874 18.8474C15.6379 18.6356 16.6034 18.1207 17.3646 17.3663C18.1196 16.6053 18.6351 15.6399 18.8474 14.5891M30.1429 20.7143C30.1429 20.4126 30.1086 20.1269 30.04 19.8571H31C32.1366 19.8571 33.2267 20.3087 34.0305 21.1124C34.8342 21.9161 35.2857 23.0062 35.2857 24.1429V31C35.2857 32.1366 34.8342 33.2267 34.0305 34.0305C33.2267 34.8342 32.1366 35.2857 31 35.2857H24.1429C23.0062 35.2857 21.9161 34.8342 21.1124 34.0305C20.3087 33.2267 19.8571 32.1366 19.8571 31V30.04C20.4202 30.178 21.0083 30.178 21.5714 30.04V31C21.5714 31.682 21.8423 32.336 22.3246 32.8183C22.8068 33.3005 23.4609 33.5714 24.1429 33.5714H31C31.682 33.5714 32.336 33.3005 32.8183 32.8183C33.3005 32.336 33.5714 31.682 33.5714 31V24.1429C33.5714 23.4609 33.3005 22.8068 32.8183 22.3246C32.336 21.8423 31.682 21.5714 31 21.5714H30.04C30.1086 21.3017 30.1429 21.016 30.1429 20.7143ZM25 25.8571C25 25.6298 25.0903 25.4118 25.2511 25.2511C25.4118 25.0903 25.6298 25 25.8571 25H30.1429C30.3702 25 30.5882 25.0903 30.749 25.2511C30.9097 25.4118 31 25.6298 31 25.8571C31 26.0845 30.9097 26.3025 30.749 26.4632C30.5882 26.624 30.3702 26.7143 30.1429 26.7143H25.8571C25.6298 26.7143 25.4118 26.624 25.2511 26.4632C25.0903 26.3025 25 26.0845 25 25.8571ZM25.8571 28.4286C25.6298 28.4286 25.4118 28.5189 25.2511 28.6796C25.0903 28.8404 25 29.0584 25 29.2857C25 29.513 25.0903 29.7311 25.2511 29.8918C25.4118 30.0526 25.6298 30.1429 25.8571 30.1429H28.4286C28.6559 30.1429 28.8739 30.0526 29.0347 29.8918C29.1954 29.7311 29.2857 29.513 29.2857 29.2857C29.2857 29.0584 29.1954 28.8404 29.0347 28.6796C28.8739 28.5189 28.6559 28.4286 28.4286 28.4286H25.8571ZM15.5714 31.8571C15.7988 31.8571 16.0168 31.9474 16.1775 32.1082C16.3383 32.2689 16.4286 32.487 16.4286 32.7143V33.5714H17.2857C17.513 33.5714 17.7311 33.6617 17.8918 33.8225C18.0526 33.9832 18.1429 34.2012 18.1429 34.4286C18.1429 34.6559 18.0526 34.8739 17.8918 35.0347C17.7311 35.1954 17.513 35.2857 17.2857 35.2857H16.4286V36.1429C16.4286 36.3702 16.3383 36.5882 16.1775 36.7489C16.0168 36.9097 15.7988 37 15.5714 37C15.3441 37 15.1261 36.9097 14.9653 36.7489C14.8046 36.5882 14.7143 36.3702 14.7143 36.1429V35.2857H13.8571C13.6298 35.2857 13.4118 35.1954 13.2511 35.0347C13.0903 34.8739 13 34.6559 13 34.4286C13 34.2012 13.0903 33.9832 13.2511 33.8225C13.4118 33.6617 13.6298 33.5714 13.8571 33.5714H14.7143V32.7143C14.7143 32.487 14.8046 32.2689 14.9653 32.1082C15.1261 31.9474 15.3441 31.8571 15.5714 31.8571Z" fill="#F4F8FF"/>
</svg>
