<svg width="26" height="24" viewBox="0 0 26 24" fill="none" xmlns="http://www.w3.org/2000/svg">
<path d="M6.33333 6.66634H13M17 6.66634H19.6667M19.6667 11.9997H11.6667M7.66667 11.9997H6.33333M6.33333 17.333H13M17 17.333H19.6667M1 6.66634V3.99967C1 3.29243 1.28095 2.61415 1.78105 2.11406C2.28115 1.61396 2.95942 1.33301 3.66667 1.33301H22.3333C23.0406 1.33301 23.7189 1.61396 24.219 2.11406C24.719 2.61415 25 3.29243 25 3.99967V19.9997C25 20.7069 24.719 21.3852 24.219 21.8853C23.7189 22.3854 23.0406 22.6663 22.3333 22.6663H3.66667C2.95942 22.6663 2.28115 22.3854 1.78105 21.8853C1.28095 21.3852 1 20.7069 1 19.9997V6.66634Z" stroke="#6B8BBA" stroke-width="2" stroke-linecap="round" stroke-linejoin="round"/>
</svg>
