<svg width="16" height="14" viewBox="0 0 16 14" fill="none" xmlns="http://www.w3.org/2000/svg">
<path d="M4.25049 4H8.00049M10.2505 4H11.7505M11.7505 7H7.25049M5.00049 7H4.25049M4.25049 10H8.00049M10.2505 10H11.7505M1.25049 4V2.5C1.25049 2.10218 1.40852 1.72064 1.68983 1.43934C1.97113 1.15804 2.35266 1 2.75049 1H13.2505C13.6483 1 14.0298 1.15804 14.3111 1.43934C14.5925 1.72064 14.7505 2.10218 14.7505 2.5V11.5C14.7505 11.8978 14.5925 12.2794 14.3111 12.5607C14.0298 12.842 13.6483 13 13.2505 13H2.75049C2.35266 13 1.97113 12.842 1.68983 12.5607C1.40852 12.2794 1.25049 11.8978 1.25049 11.5V4Z" stroke="#F4F8FF" stroke-width="1.2" stroke-linecap="round" stroke-linejoin="round"/>
</svg>
