<svg width="22" height="22" viewBox="0 0 22 22" fill="none" xmlns="http://www.w3.org/2000/svg">
<path fill-rule="evenodd" clip-rule="evenodd" d="M9.91998 0.867706C10.03 0.678865 10.1877 0.52218 10.3772 0.413279C10.5667 0.304379 10.7814 0.24707 11 0.24707C11.2185 0.24707 11.4333 0.304379 11.6228 0.413279C11.8123 0.52218 11.9699 0.678865 12.08 0.867706L14.875 5.66571L20.303 6.84171C20.5165 6.8881 20.7141 6.98965 20.8761 7.13624C21.0382 7.28282 21.159 7.46932 21.2264 7.67713C21.2939 7.88494 21.3058 8.10681 21.2608 8.32063C21.2158 8.53444 21.1155 8.73272 20.97 8.89571L17.27 13.0367L17.83 18.5617C17.8521 18.7793 17.8167 18.9988 17.7274 19.1984C17.6381 19.398 17.498 19.5707 17.3211 19.6993C17.1442 19.8278 16.9367 19.9077 16.7192 19.9309C16.5018 19.9542 16.2821 19.9199 16.082 19.8317L11 17.5917L5.91799 19.8317C5.7179 19.9199 5.49818 19.9542 5.28074 19.9309C5.0633 19.9077 4.85577 19.8278 4.67886 19.6993C4.50195 19.5707 4.36185 19.398 4.27255 19.1984C4.18326 18.9988 4.14789 18.7793 4.16999 18.5617L4.72999 13.0367L1.02999 8.89671C0.884213 8.73373 0.783741 8.53537 0.738599 8.32142C0.693457 8.10748 0.705225 7.88544 0.772729 7.67746C0.840232 7.46949 0.961109 7.28286 1.12329 7.1362C1.28547 6.98955 1.48329 6.88801 1.69699 6.84171L7.12499 5.66571L9.91998 0.867706ZM11 2.98671L8.68699 6.9587C8.59953 7.10863 8.4818 7.23869 8.34131 7.34062C8.20082 7.44254 8.04065 7.51409 7.87099 7.5507L3.37899 8.52371L6.44099 11.9507C6.67499 12.2127 6.78798 12.5607 6.75299 12.9097L6.28999 17.4827L10.496 15.6287C10.6548 15.5587 10.8264 15.5226 11 15.5226C11.1735 15.5226 11.3452 15.5587 11.504 15.6287L15.71 17.4827L15.247 12.9097C15.2294 12.737 15.248 12.5626 15.3015 12.3975C15.3551 12.2324 15.4424 12.0802 15.558 11.9507L18.621 8.52371L14.129 7.5507C13.9593 7.51409 13.7991 7.44254 13.6587 7.34062C13.5182 7.23869 13.4004 7.10863 13.313 6.9587L11 2.98671Z" fill="#556E94"/>
</svg>
