<svg width="26" height="26" viewBox="0 0 26 26" fill="none" xmlns="http://www.w3.org/2000/svg">
<path d="M20.728 24.6083C20.272 23.191 19.2666 21.9377 17.8706 21.0443C16.4733 20.151 14.76 19.667 13 19.667C11.24 19.667 9.52664 20.151 8.12931 21.0443C6.73331 21.9377 5.72931 23.191 5.27197 24.6083" stroke="#6B8BBA" stroke-width="2"/>
<path d="M13 14.333C15.2091 14.333 17 12.5421 17 10.333C17 8.12387 15.2091 6.33301 13 6.33301C10.7909 6.33301 9 8.12387 9 10.333C9 12.5421 10.7909 14.333 13 14.333Z" stroke="#6B8BBA" stroke-width="2" stroke-linecap="round"/>
<path d="M21 1H5C2.79086 1 1 2.79086 1 5V21C1 23.2091 2.79086 25 5 25H21C23.2091 25 25 23.2091 25 21V5C25 2.79086 23.2091 1 21 1Z" stroke="#6B8BBA" stroke-width="2"/>
</svg>
